<svg width="81" height="68" viewBox="0 0 81 68" fill="none" xmlns="http://www.w3.org/2000/svg">
<mask id="mask0_833_710" style="mask-type:luminance" maskUnits="userSpaceOnUse" x="26" y="16" width="20" height="23">
<path d="M26.2746 16.2039H45.1163V38.1623H26.2746V16.2039Z" fill="white"/>
</mask>
<g mask="url(#mask0_833_710)">
<path d="M26.279 16.941H26.2783L26.2746 22.5516C26.2746 22.5516 27.8071 21.2582 29.4304 21.1113C29.4304 21.1113 29.5034 20.4679 27.6175 21.3748C27.6175 21.3748 27.8654 19.6932 31.8291 19.9123C31.8291 19.9123 31.99 19.342 29.9572 19.6637C29.9572 19.6637 31.0581 18.2315 34.4212 19.1568C34.4212 19.1568 34.6064 17.5925 36.372 17.5084C36.372 17.5084 35.9352 18.5178 36.3558 19.1738C36.3558 19.1738 37.18 18.6019 37.7179 18.8373C37.7968 19.2114 37.3541 19.0786 37.4316 20.0518C37.5105 21.0368 38.7236 21.5858 38.5752 23.0925C38.5752 23.0925 38.8512 24.8832 40.4996 26.6828C42.1472 28.4824 39.3758 29.342 39.1574 29.3922C38.6461 30.2297 37.7828 30.3145 37.3696 29.359C37.0959 28.7274 36.4252 27.445 35.4069 27.206C35.4069 27.206 33.4391 27.7948 32.4637 25.8609C32.4637 25.8609 31.7406 27.6767 32.8001 29.3287C34.9635 32.109 37.7016 32.9523 39.7683 38.0914H45.1627L40.0524 31.0339C46.3581 29.511 47.605 16.2039 35.8371 16.2039H27.0154C26.6088 16.2039 26.279 16.5337 26.279 16.941Z" fill="#E13D3D"/>
</g>
<path fill-rule="evenodd" clip-rule="evenodd" d="M35.0801 21.0256C35.0801 21.0256 36.8066 21.7428 36.8797 23.3366C36.8797 23.3366 36.7919 23.0296 36.6451 23.0149C36.499 23.0001 35.9581 23.0001 35.8991 22.4593C35.8408 21.9184 35.8401 21.4912 35.0801 21.0256Z" fill="#E13D3D"/>
<mask id="mask1_833_710" style="mask-type:luminance" maskUnits="userSpaceOnUse" x="32" y="23" width="14" height="16">
<path d="M32.1722 23.5167H45.1163V38.1622H32.1722V23.5167Z" fill="white"/>
</mask>
<g mask="url(#mask1_833_710)">
<path d="M38.6933 23.5742C38.8873 24.2272 39.3728 25.4528 40.4995 26.6828C42.1472 28.4824 39.3758 29.342 39.1574 29.3921C38.6453 30.2296 37.7828 30.3145 37.3696 29.3589C37.0959 28.7273 36.4251 27.445 35.4069 27.2059C35.4069 27.2059 33.4391 27.7947 32.4636 25.8608C32.4636 25.8608 31.7398 27.6766 32.8001 29.3287C34.9635 32.1089 37.7016 32.9523 39.7683 38.0914H45.1627L40.0517 31.0339C43.0481 30.31 44.9008 26.927 44.7599 23.5742H38.6933Z" fill="#E13D3D"/>
</g>
<mask id="mask2_833_710" style="mask-type:luminance" maskUnits="userSpaceOnUse" x="7" y="11" width="26" height="29">
<path d="M7.71179 11.8639H32.3611V39.2056H7.71179V11.8639Z" fill="white"/>
</mask>
<g mask="url(#mask2_833_710)">
<path fill-rule="evenodd" clip-rule="evenodd" d="M19.091 16.2984H23.9025V20.6192L32.3088 11.8639L23.9025 21.754L19.091 27.2111L7.71265 39.2078L19.091 25.9051V16.2984Z" fill="black"/>
</g>
<path fill-rule="evenodd" clip-rule="evenodd" d="M19.0777 28.8985L23.8899 23.4325V38.185H19.0777V28.8985Z" fill="black"/>
<mask id="mask3_833_710" style="mask-type:luminance" maskUnits="userSpaceOnUse" x="7" y="11" width="26" height="29">
<path d="M7.71179 11.8639H32.3611V39.2056H7.71179V11.8639Z" fill="white"/>
</mask>
<g mask="url(#mask3_833_710)">
<path fill-rule="evenodd" clip-rule="evenodd" d="M23.9025 20.6192L32.3088 11.8639L23.9025 21.754L19.091 27.2111L7.71265 39.2078L19.091 25.9051L23.9025 20.6192Z" fill="black"/>
</g>
<mask id="mask4_833_710" style="mask-type:luminance" maskUnits="userSpaceOnUse" x="46" y="23" width="15" height="16">
<path d="M46.0674 23.5167H60.5056V38.25H46.0674V23.5167Z" fill="white"/>
</mask>
<g mask="url(#mask4_833_710)">
<path fill-rule="evenodd" clip-rule="evenodd" d="M51.0885 23.6694H60.347C59.4358 25.4698 58.0671 28.6661 55.6986 28.6661H51.0885V33.378C51.0885 36.083 46.0925 38.2331 46.0925 38.2331V23.6694H51.0885Z" fill="black"/>
</g>
<mask id="mask5_833_710" style="mask-type:luminance" maskUnits="userSpaceOnUse" x="46" y="16" width="20" height="6">
<path d="M46.0674 16.3456H65.4757V21.4389H46.0674V16.3456Z" fill="white"/>
</mask>
<g mask="url(#mask5_833_710)">
<path fill-rule="evenodd" clip-rule="evenodd" d="M50.2871 16.3456C55.4409 16.3456 60.2613 16.364 65.438 16.364C64.5268 18.1636 63.1581 21.3607 60.7896 21.3607C55.8903 21.3607 50.991 21.3607 46.0924 21.3607C45.8128 19.3671 47.9082 16.3456 50.2871 16.3456Z" fill="black"/>
</g>
<path d="M18.873 42.4172H17.2025L17.2498 42.2814C17.2881 42.1869 17.3855 42.1161 17.48 42.1161H18.9822L19.1741 41.5819H17.5006C17.4446 41.5819 17.3796 41.5967 17.3176 41.6321L16.6949 41.9774C16.5946 42.0335 16.509 42.1309 16.4706 42.2283L16.2109 42.9514H17.8784L17.8253 43.096C17.7928 43.1875 17.6954 43.2612 17.601 43.2612H16.0987L15.9039 43.7955H17.5803C17.6423 43.7955 17.7013 43.7807 17.7633 43.7453L18.392 43.3911C18.4923 43.3321 18.569 43.2524 18.6074 43.1491L18.873 42.4172Z" fill="black"/>
<path d="M19.5852 43.7955L19.9748 42.727L20.6329 43.7955H21.5449L21.5508 43.7748L20.8543 42.6798L22.3389 41.6026L22.3477 41.5819H21.4357L20.0073 42.6326L20.388 41.5819H19.5882L18.7883 43.7955H19.5852Z" fill="black"/>
<path d="M22.8498 43.5121L23.5493 41.5819H23.1095C23.0741 41.5819 23.0358 41.5937 23.0092 41.6085L22.7642 41.7354C22.7111 41.7619 22.6698 41.8092 22.6491 41.8652L21.9496 43.7955H22.3924C22.4248 43.7955 22.4632 43.7866 22.4898 43.7689L22.7377 43.642C22.7878 43.6154 22.8292 43.5682 22.8498 43.5121Z" fill="black"/>
<path d="M24.8635 41.5819H24.0637L23.4587 43.2524C23.4233 43.3468 23.4351 43.4413 23.497 43.5003L23.7981 43.7453C23.8335 43.7807 23.8866 43.7955 23.9516 43.7955H25.4243L25.6191 43.2612H24.4267C24.3323 43.2612 24.2821 43.1875 24.3116 43.096L24.8635 41.5819Z" fill="black"/>
<path d="M27.3965 41.5819H26.5967L25.9916 43.2524C25.9562 43.3468 25.968 43.4413 26.03 43.5003L26.331 43.7453C26.3665 43.7807 26.4196 43.7955 26.4845 43.7955H27.9573L28.152 43.2612H26.9597C26.8652 43.2612 26.8151 43.1875 26.8446 43.096L27.3965 41.5819Z" fill="black"/>
<path d="M35.2485 41.5819L34.9681 42.2342C34.9474 42.2755 34.7645 42.6975 34.6877 42.9277L34.6848 41.5819H34.2834L33.2947 42.9395C33.3921 42.6975 33.519 42.2755 33.5249 42.2371L33.7167 41.5819H32.8697L32.4092 43.3705C32.3591 43.5948 32.4447 43.7955 32.6837 43.7955H33.2002L34.1712 42.4437L34.1506 43.7955H34.6198C34.6612 43.7955 34.7025 43.7866 34.7438 43.76L35.0212 43.6184C35.1009 43.58 35.154 43.5062 35.1924 43.4354L36.0542 41.5819H35.2485Z" fill="black"/>
<path d="M36.6195 43.5121L37.319 41.5819H36.8792C36.8438 41.5819 36.8054 41.5937 36.7788 41.6085L36.5339 41.7354C36.4808 41.7619 36.4394 41.8092 36.4188 41.8652L35.7193 43.7955H36.162C36.1945 43.7955 36.2328 43.7866 36.2594 43.7689L36.5073 43.642C36.5575 43.6154 36.5988 43.5682 36.6195 43.5121Z" fill="black"/>
<path d="M38.6331 41.5819H37.8332L37.2282 43.2524C37.1928 43.3468 37.2046 43.4413 37.2666 43.5003L37.5676 43.7453C37.603 43.7807 37.6562 43.7955 37.7211 43.7955H39.1938L39.3886 43.2612H38.1963C38.1018 43.2612 38.0516 43.1875 38.0812 43.096L38.6331 41.5819Z" fill="black"/>
<path d="M41.1661 41.5819H40.3663L39.7612 43.2524C39.7258 43.3468 39.7376 43.4413 39.7996 43.5003L40.1006 43.7453C40.1361 43.7807 40.1892 43.7955 40.2541 43.7955H41.7268L41.9216 43.2612H40.7293C40.6348 43.2612 40.5847 43.1875 40.6142 43.096L41.1661 41.5819Z" fill="black"/>
<path d="M45.9155 42.1161H46.8275L46.2195 43.7955H46.6622C46.6976 43.7955 46.7331 43.7866 46.7596 43.7689L47.0046 43.642C47.0607 43.6154 47.102 43.5682 47.1226 43.5121L47.6273 42.1161H48.5423L48.7371 41.5819H46.1074L45.9155 42.1161Z" fill="black"/>
<path d="M49.0891 43.7955L49.4727 42.7359L49.6823 42.9425H50.429L50.1191 43.7955H50.5618C50.5972 43.7955 50.6297 43.7866 50.6562 43.7689L50.9042 43.642C50.9602 43.6154 51.0016 43.5682 51.0222 43.5121L51.7217 41.5819H50.9219L50.6061 42.4585H49.576L49.8918 41.5819H49.092L48.2922 43.7955H49.0891Z" fill="black"/>
<path d="M52.1456 43.7955L52.5264 42.7477L52.9897 43.7955H53.9755L53.9814 43.7748L53.5269 42.972H53.7423C53.8161 42.972 53.8899 42.9425 53.9725 42.8805L54.247 42.6798C54.2942 42.6326 54.3267 42.5942 54.3415 42.5441L54.4625 42.2253C54.6218 41.7856 54.3739 41.5819 53.8633 41.5819H52.1486L51.3488 43.7955H52.1456ZM52.7566 42.1161H53.5269C53.6184 42.1161 53.6685 42.1869 53.6331 42.2814L53.5741 42.4496C53.5416 42.5382 53.4383 42.6149 53.3439 42.6149H52.5736L52.7566 42.1161Z" fill="black"/>
<path d="M55.2097 43.5121L55.9092 41.5819H55.4694C55.434 41.5819 55.3956 41.5937 55.3691 41.6085L55.1241 41.7354C55.071 41.7619 55.0296 41.8092 55.009 41.8652L54.3095 43.7955H54.7522C54.7847 43.7955 54.8231 43.7866 54.8496 43.7689L55.0975 43.642C55.1477 43.6154 55.189 43.5682 55.2097 43.5121Z" fill="black"/>
<path d="M57.2233 41.5819H56.4235L55.8185 43.2524C55.7831 43.3468 55.7949 43.4413 55.8568 43.5003L56.1579 43.7453C56.1933 43.7807 56.2464 43.7955 56.3114 43.7955H57.7841L57.9789 43.2612H56.7865C56.6921 43.2612 56.6419 43.1875 56.6714 43.096L57.2233 41.5819Z" fill="black"/>
<path d="M59.7564 41.5819H58.9565L58.3515 43.2524C58.3161 43.3468 58.3279 43.4413 58.3899 43.5003L58.6909 43.7453C58.7263 43.7807 58.7794 43.7955 58.8444 43.7955H60.3171L60.5119 43.2612H59.3196C59.2251 43.2612 59.1749 43.1875 59.2044 43.096L59.7564 41.5819Z" fill="black"/>
</svg>
